<svg
  xmlns="http://www.w3.org/2000/svg"
  viewBox="0 0 24 24"
  width="28"
  height="28"
  fill="#7AD0C9"
  className="text-[#7AD0C9]"
>
  <path d="M20.136 15.029h-.059a55.154 55.154 0 00-8.327.873v-2.178a5.519 5.519 0 004.145-1.8 4.626 4.626 0 00.837-3.63L16.6 7.7H16a21.094 21.094 0 00-2.142.1 3.687 3.687 0 00.392-1.623c0-2.342-2.791-3.79-2.91-3.85L11 2.158l-.34.174c-.119.06-2.91 1.508-2.91 3.85A3.687 3.687 0 008.142 7.8 21.094 21.094 0 006 7.7h-.6l-.129.589a4.626 4.626 0 00.837 3.63 5.519 5.519 0 004.145 1.8V16.2a36.882 36.882 0 00-7.161 2.265A1.848 1.848 0 003.848 22h16.3A1.848 1.848 0 0022 20.152v-3.273a1.858 1.858 0 00-1.864-1.85zM15.311 9.214a2.876 2.876 0 01-.594 1.779 4.057 4.057 0 01-2.967 1.23V9.8a4.871 4.871 0 01.718-.239 12.964 12.964 0 012.843-.347zM11 3.868c.591.379 1.753 1.257 1.753 2.314a2.982 2.982 0 01-1.024 2.027 5.253 5.253 0 01-.465.4h-.524a5.237 5.237 0 01-.463-.4A2.994 2.994 0 019.25 6.182c0-.99 1.061-1.876 1.75-2.314zm-3.717 7.125a2.874 2.874 0 01-.594-1.779 12.964 12.964 0 012.843.345 4.871 4.871 0 01.718.239v2.425a4.057 4.057 0 01-2.967-1.23zm12.967 9.159a.1.1 0 01-.1.1H3.848a.1.1 0 01-.1-.1.092.092 0 01.054-.088 44.062 44.062 0 0116.327-3.285h.006a.109.109 0 01.113.1z" />
</svg>
