<svg
  xmlns="http://www.w3.org/2000/svg"
  viewBox="0 0 24 24"
  width="28"
  height="28"
  fill="#ADE5C9"
  className="text-[#ADE5C9]"
>
  <path d="M17 3.75a.25.25 0 01.25.25v16a.25.25 0 01-.25.25H7a.25.25 0 01-.25-.25V4A.25.25 0 017 3.75h10M17 2H7a2 2 0 00-2 2v16a2 2 0 002 2h10a2 2 0 002-2V4a2 2 0 00-2-2z" />
  <path d="M8.75 6h2.167v2.167H8.75z" />
  <path d="M13.083 6h2.167v2.167h-2.167z" />
  <path d="M8.75 9.75h2.167v2.167H8.75z" />
  <path d="M13.083 9.75h2.167v2.167h-2.167z" />
  <path d="M8.75 13.5h2.167v2.167H8.75z" />
  <path d="M13.083 13.5h2.167v2.167h-2.167z" />
  <path d="M10.5 18h3v4h-3z" />
</svg>
