<svg
  xmlns="http://www.w3.org/2000/svg"
  viewBox="0 0 24 24"
  width="28"
  height="28"
  fill="#8775AD"
  className="text-[#8775AD]"
>
  <path d="M12.103 4.125v11.657H5.997V4.125h6.106m-8.049-.833v13.324a1.111 1.111 0 001.11 1.11h7.772a1.111 1.111 0 001.11-1.11V3.292a1.111 1.111 0 00-1.11-1.11H5.164a1.111 1.111 0 00-1.11 1.11z" />
  <path d="M7.94 5.513h2.221v2.221H7.94z" />
  <path d="M7.94 8.844h2.221v2.221H7.94z" />
  <path d="M7.94 14.395h2.221v2.221H7.94z" />
  <path d="M15.162 15.505v1.665h4.4l-3.855 3.335H4.09l1.929-1.665H3.47l-2.05 1.765a.888.888 0 00.581 1.56h13.994a.885.885 0 00.581-.217l5.657-4.885a.888.888 0 00-.581-1.558z" />
</svg>
