<svg
  xmlns="http://www.w3.org/2000/svg"
  viewBox="0 0 24 24"
  width="28"
  height="28"
  fill="#8775AD"
  className="text-[#8775AD]"
>
  <path d="M19.529 14.135c-.088 0-.178 0-.268.012-.912.078-2.02.2-3.261.385V13h2.652a2 2 0 001.761-2.948L16.761 3.27A1.979 1.979 0 0015 2.219a1.979 1.979 0 00-1.761 1.051l-3.652 6.782A2 2 0 0011.348 13H14v1.87a44.517 44.517 0 00-10.761 3.393C1.053 19.3 1.943 22 4.479 22h15.042A2.278 2.278 0 0022 20v-3.863a2.275 2.275 0 00-2.471-2.002zM11.348 11l3.642-6.78H15L18.652 11zM20 19.872a.856.856 0 01-.479.128H4.479a1.327 1.327 0 01-.2-.015 46.743 46.743 0 0115.154-3.846h.1a.846.846 0 01.467.122z" />
  <path d="M5.5 9A3.5 3.5 0 009 5.5 3.5 3.5 0 005.5 2 3.5 3.5 0 002 5.5 3.5 3.5 0 005.5 9zm0-5A1.5 1.5 0 017 5.5 1.5 1.5 0 015.5 7 1.5 1.5 0 014 5.5 1.5 1.5 0 015.5 4z" />
</svg>
