<svg
  xmlns="http://www.w3.org/2000/svg"
  viewBox="0 0 24 24"
  width="28"
  height="28"
  fill="#7ED8AA99"
  className="text-[#7ED8AA99]"
>
  <path d="M10.532 18.667H7.294a1.123 1.123 0 01-1.122-1.122V8.593l5.406-4.325a1.114 1.114 0 011.4 0l5.406 4.325v1.35l1.745 1.745v-1.7l1.573 1.259 1.091-1.363-8.725-6.98a2.851 2.851 0 00-3.581 0l-8.725 6.98 1.091 1.363 1.573-1.259v7.556a2.87 2.87 0 002.866 2.866h3.238z" />
  <path d="M15.204 20.412l-5.491-5.423.019-5.186 5.181-.02 5.493 5.426zm-3.993-6.046l3.986 3.937 3.087-3.088-3.983-3.934-3.079.012z" />
  <circle cx="12.957" cy="12.964" r="0.816" />
</svg>
