<svg
  xmlns="http://www.w3.org/2000/svg"
  viewBox="0 0 24 24"
  width="28"
  height="28"
  fill="#8775AD"
  className="text-[#8775AD]"
>
  <path d="M10.25 16.2a36.882 36.882 0 00-7.161 2.265A1.848 1.848 0 003.848 22h16.3A1.848 1.848 0 0022 20.152v-3.273a1.858 1.858 0 00-1.864-1.85h-.059a55.154 55.154 0 00-8.327.873z" />
  <path d="M14.332 13.41z" />
  <path d="M19.767 4.125H14.35l-1.1 5.669-.8-2.669H7.278l-1.753 9.063 1.83-.717 1.351-6.6h2.443l1.383 4.629.071.239 1.729-.328 1.461-7.535h2.432l1 7.863 1.789.2z" />
  <path d="M10.593 3H9.1a3.4 3.4 0 001.147 2.529H12A2.987 2.987 0 0110.593 3z" />
  <path d="M7.686 3H6.2a3.4 3.4 0 001.144 2.529h1.739A2.989 2.989 0 017.686 3z" />
</svg>
