<svg
  xmlns="http://www.w3.org/2000/svg"
  viewBox="0 0 21 21"
  width="28"
  height="28"
  fill="#6D7FBE"
  className="text-[#6D7FBE]"
>
  <g>
    <path fill="none" d="M0.5 0.5h20v20H0.5z" />
    <g>
      <path d="M10.5 15.448l-.375-.282c-.207-.158-5.079-3.858-5.079-7.806a5.309 5.309 0 0 1 5.454-5.4 5.309 5.309 0 0 1 5.454 5.4c0 3.948-4.872 7.65-5.079 7.806Zm0-12.24A4.042 4.042 0 0 0 6.291 7.36c0 2.752 3.109 5.59 4.2 6.5 1.1-.914 4.2-3.753 4.2-6.5A4.042 4.042 0 0 0 10.5 3.208Z" />
      <path d="M10.496 9.25a2.236 2.236 0 1 1 2.236-2.236 2.238 2.238 0 0 1-2.236 2.236Zm0-3.223a.986.986 0 1 0 .986.987.987.987 0 0 0-.986-.987Z" />
      <path d="M18.526 18.625H2.534a.833.833 0 0 1-.714-1.267l2.25-3.75a.832.832 0 0 1 .714-.4H6.5l1.333 1.25H5.021l-1.75 2.917H17.91l-1.167-2.917h-3.576l1.333-1.25h2.526a.833.833 0 0 1 .773.524l1.5 3.75a.833.833 0 0 1-.773 1.143Z" />
    </g>
  </g>
</svg>
