<svg
  xmlns="http://www.w3.org/2000/svg"
  viewBox="0 0 24 24"
  width="28"
  height="28"
  fill="#8DCDF5"
  className="text-[#8DCDF5]"
>
  <path d="M4.748 20.5a1.76 1.76 0 01-1.75-1.751V11.7l-.08-.074a3.5 3.5 0 01-.261-.27 3.1 3.1 0 01-.566-2.657l1.05-4.37A1.708 1.708 0 014.8 3h13.888a1.707 1.707 0 011.666 1.327l1.051 4.371a3.1 3.1 0 01-.574 2.678 3.454 3.454 0 01-.25.247l-.083.075v7.052a1.761 1.761 0 01-1.751 1.75zm-.25-1.5H19.01v-6.587l-.3.061a1.451 1.451 0 01-.195.027 2.888 2.888 0 01-2.045-.875l-.179-.185-.179.184a2.951 2.951 0 01-2.064.875 3.013 3.013 0 01-2.114-.859l-.176-.173-.175.175a2.9 2.9 0 01-2.054.857 3 3 0 01-2.132-.876l-.179-.182-.178.184a2.891 2.891 0 01-2.061.874 1.43 1.43 0 01-.179-.026l-.3-.061zm-.954-9.947a1.576 1.576 0 00.311 1.386 1.4 1.4 0 001.12.561 1.512 1.512 0 001.462-1.367L7.05 4.5H4.599zm4.446.187a1.677 1.677 0 00.388 1.262 1.456 1.456 0 001.077.5 1.536 1.536 0 001.543-1.565V4.5H8.566zm8.457-4.739l.613 5.138A1.5 1.5 0 0018.51 11a1.432 1.432 0 001.147-.571 1.61 1.61 0 00.292-1.38l-1.094-4.563zM12.498 9.44a1.527 1.527 0 001.46 1.56h.005a1.474 1.474 0 001.144-.5 1.593 1.593 0 00.389-1.266L14.93 4.5h-2.432z" />
</svg>
